<svg id="Layer_1" data-name="Layer 1" xmlns="http://www.w3.org/2000/svg" viewBox="0 0 99.29 99.29"><defs><style>.cls-1{fill:#6d57a5;}.cls-2{fill:#fff;}</style></defs><circle class="cls-1" cx="49.65" cy="49.65" r="49.65"/><path class="cls-2" d="M328.89,406.43a25.73,25.73,0,0,0,1.62-6.88l0,0c.12-.17.25-.34.37-.52a21.49,21.49,0,0,0,3.46-7.85,18.54,18.54,0,0,0,0-7.85,19.58,19.58,0,0,0-3.42-7.33,27,27,0,0,0-6.61-6.25,25.51,25.51,0,0,0-8.22-3.82,20.17,20.17,0,0,0-8.06-.43,18.7,18.7,0,0,0-7.3,2.81,21.07,21.07,0,0,0-6,5.93c-.26.37-.5.75-.72,1.13h0a20.19,20.19,0,0,0-1.87,1,22.08,22.08,0,0,0-2.83,1.93,36.85,36.85,0,0,0-3.4,3.08,32.39,32.39,0,0,0-3.59,4.42A28.72,28.72,0,0,0,278,395a22.09,22.09,0,0,0-.37,9.38,23.37,23.37,0,0,0,3.71,8.9,29,29,0,0,0,7.9,7.74q10.13,6.94,19.17,5.53t15.83-11.3A38.5,38.5,0,0,0,328.89,406.43Zm-19.77-29.84q3.81,0,8.31,3.06t5.92,6.7a7.06,7.06,0,0,1-.87,6.93,7.14,7.14,0,0,1-6.18,3.35q-3.9,0-8.4-3.07t-5.83-6.68a7.79,7.79,0,0,1,7.05-10.29Zm2.9,37a11.59,11.59,0,0,1-5.25,1.69,13.37,13.37,0,0,1-5.54-.88,25.89,25.89,0,0,1-5.66-3,20.46,20.46,0,0,1-5.33-5,13.54,13.54,0,0,1-2.3-5.23,11.33,11.33,0,0,1,.19-5.12,14.85,14.85,0,0,1,2.13-4.6c.36-.54.73-1,1.1-1.52a20.28,20.28,0,0,0,3.23,7.27,24.9,24.9,0,0,0,6.51,6.33,25.78,25.78,0,0,0,8.26,3.84,20.44,20.44,0,0,0,8.07.49l-.69,1.05A15.73,15.73,0,0,1,312,413.54Z" transform="translate(-256.35 -346.35)"/></svg>