<svg id="Layer_1" data-name="Layer 1" xmlns="http://www.w3.org/2000/svg" viewBox="0 0 387.43 81.85"><defs><style>.cls-1{fill:#6d57a5;}.cls-2,.cls-3{fill:#fff;}.cls-3{font-size:51.09px;font-family:Ubuntu-Bold, Ubuntu;font-weight:700;}</style></defs><circle class="cls-1" cx="40.93" cy="40.93" r="40.93"/><path class="cls-2" d="M215.31,298.05a21.39,21.39,0,0,0,1.33-5.68h0l.3-.43a17.53,17.53,0,0,0,2.86-6.47,15.17,15.17,0,0,0,0-6.47,16,16,0,0,0-2.82-6,22.25,22.25,0,0,0-5.44-5.16,21.36,21.36,0,0,0-6.78-3.15,16.55,16.55,0,0,0-6.64-.35,15.4,15.4,0,0,0-6,2.32,17.39,17.39,0,0,0-4.94,4.89c-.21.3-.4.61-.59.92h0c-.34.15-.85.41-1.54.79a20.13,20.13,0,0,0-2.33,1.6,30.24,30.24,0,0,0-2.8,2.54,25.89,25.89,0,0,0-3,3.64,23.6,23.6,0,0,0-3.51,7.6,18.09,18.09,0,0,0-.3,7.73,19.38,19.38,0,0,0,3.05,7.34,23.92,23.92,0,0,0,6.52,6.38q8.34,5.73,15.8,4.56t13-9.31A31.94,31.94,0,0,0,215.31,298.05ZM199,273.45a12.29,12.29,0,0,1,6.85,2.52,12.57,12.57,0,0,1,4.88,5.52,5.82,5.82,0,0,1-.71,5.72,5.93,5.93,0,0,1-5.1,2.76,12.43,12.43,0,0,1-6.93-2.53,12.12,12.12,0,0,1-4.8-5.51,6,6,0,0,1,.78-5.71A5.89,5.89,0,0,1,199,273.45Zm2.39,30.46a9.43,9.43,0,0,1-4.32,1.39,11,11,0,0,1-4.58-.72,21.34,21.34,0,0,1-4.66-2.45,16.81,16.81,0,0,1-4.39-4.15,11.09,11.09,0,0,1-1.9-4.31,9.24,9.24,0,0,1,.16-4.22,12.28,12.28,0,0,1,1.75-3.8c.3-.43.6-.85.91-1.25a16.84,16.84,0,0,0,2.66,6,20.43,20.43,0,0,0,5.37,5.22,21.15,21.15,0,0,0,6.81,3.16,16.62,16.62,0,0,0,6.65.4c-.18.29-.37.57-.57.87A12.93,12.93,0,0,1,201.4,303.91Z" transform="translate(-155.51 -248.52)"/><text class="cls-3" transform="translate(101.13 56.9)">CodeChums</text></svg>