<svg id="Layer_1" data-name="Layer 1" xmlns="http://www.w3.org/2000/svg" viewBox="0 0 779.78 176.31"><defs><style>.cls-1{fill:#f15a24;}.cls-2{fill:#fff;}</style></defs><circle class="cls-1" cx="88.16" cy="88.16" r="88.16"/><path class="cls-2" d="M128.8,106.68a45.93,45.93,0,0,0,2.88-12.22l-.08,0,.67-.92a38.32,38.32,0,0,0,6.14-13.94,32.91,32.91,0,0,0-.07-13.94,34.65,34.65,0,0,0-6.08-13A48.05,48.05,0,0,0,120.54,41.5a45.54,45.54,0,0,0-14.62-6.78A35.79,35.79,0,0,0,91.62,34a33.34,33.34,0,0,0-13,5A37.43,37.43,0,0,0,68,49.48c-.45.66-.87,1.33-1.28,2h0c-.73.32-1.83.88-3.31,1.7a39.73,39.73,0,0,0-5,3.43,66.79,66.79,0,0,0-6.05,5.48A57.74,57.74,0,0,0,46,69.94,51.07,51.07,0,0,0,38.45,86.3,39,39,0,0,0,37.8,103a41.52,41.52,0,0,0,6.58,15.81,51.53,51.53,0,0,0,14,13.74q18,12.33,34.05,9.82t28.1-20.06A68.22,68.22,0,0,0,128.8,106.68Zm-35.11-53q6.77,0,14.77,5.44T119,71a12.52,12.52,0,0,1-1.55,12.31,12.71,12.71,0,0,1-11,6q-6.92,0-14.92-5.46T81.18,72a12.83,12.83,0,0,1,1.69-12.3A12.66,12.66,0,0,1,93.69,53.69Zm5.16,65.61a20.67,20.67,0,0,1-9.32,3,24,24,0,0,1-9.85-1.56,46.36,46.36,0,0,1-10.05-5.29,36.36,36.36,0,0,1-9.46-8.92,24.22,24.22,0,0,1-4.09-9.3,20.15,20.15,0,0,1,.34-9.08A26.88,26.88,0,0,1,60.2,80c.64-.94,1.3-1.84,2-2.7A36.07,36.07,0,0,0,67.9,90.2a44.1,44.1,0,0,0,11.55,11.24,45.73,45.73,0,0,0,14.67,6.82,36.21,36.21,0,0,0,14.33.86q-.58.91-1.23,1.86A27.73,27.73,0,0,1,98.85,119.3Z"/><path class="cls-1" d="M249,121.72q-17.35,0-26.45-9.65t-9.09-27.43a42.36,42.36,0,0,1,2.77-15.77,34,34,0,0,1,7.61-11.71,31.57,31.57,0,0,1,11.5-7.24,41.36,41.36,0,0,1,14.49-2.47,46.79,46.79,0,0,1,8.21.67,54.63,54.63,0,0,1,6.48,1.54,32,32,0,0,1,4.62,1.8q1.85.91,2.67,1.44l-4.62,12.94a39.23,39.23,0,0,0-7.66-3,36.56,36.56,0,0,0-9.91-1.23,21.9,21.9,0,0,0-7.24,1.23,16.38,16.38,0,0,0-6.27,4,19.66,19.66,0,0,0-4.36,7,29.44,29.44,0,0,0-1.65,10.48,37.29,37.29,0,0,0,1.08,9.19,19.51,19.51,0,0,0,3.49,7.35,16.86,16.86,0,0,0,6.32,4.88,22.44,22.44,0,0,0,9.45,1.8,42.19,42.19,0,0,0,6.27-.42,44.87,44.87,0,0,0,4.93-1,25.12,25.12,0,0,0,3.8-1.29c1.09-.47,2.09-.92,3-1.33l4.42,12.84a37.73,37.73,0,0,1-9.56,3.7A56,56,0,0,1,249,121.72Z"/><path class="cls-1" d="M331.39,93.16a35.16,35.16,0,0,1-1.85,11.66,25.24,25.24,0,0,1-5.34,9,24.09,24.09,0,0,1-8.37,5.81,28,28,0,0,1-10.94,2,27.63,27.63,0,0,1-10.84-2,23.9,23.9,0,0,1-8.37-5.81,26.52,26.52,0,0,1-5.45-9,33.44,33.44,0,0,1-2-11.66,32.35,32.35,0,0,1,2-11.6,26.33,26.33,0,0,1,5.55-8.94,24.83,24.83,0,0,1,8.42-5.75,28.74,28.74,0,0,1,21.37,0A24.34,24.34,0,0,1,324,72.62a26,26,0,0,1,5.45,8.94A33,33,0,0,1,331.39,93.16Zm-15.62,0q0-7.08-2.82-11.14A9.22,9.22,0,0,0,304.89,78,9.36,9.36,0,0,0,296.77,82q-2.88,4-2.88,11.14t2.88,11.25a9.28,9.28,0,0,0,8.12,4.16,9.15,9.15,0,0,0,8.06-4.16Q315.77,100.26,315.77,93.16Z"/><path class="cls-1" d="M390.87,118.54c-1.38.41-2.95.8-4.73,1.18s-3.65.7-5.6,1-3.94.49-6,.66-3.95.26-5.8.26a34.06,34.06,0,0,1-11.92-2,24,24,0,0,1-8.83-5.6,24.3,24.3,0,0,1-5.5-8.84,33.83,33.83,0,0,1-1.9-11.66,39.76,39.76,0,0,1,1.65-11.86,25.81,25.81,0,0,1,4.72-9,20.31,20.31,0,0,1,7.55-5.65,25.35,25.35,0,0,1,10.22-1.95,24,24,0,0,1,5.7.62,31,31,0,0,1,5.09,1.74V43l15.31-2.46ZM356.25,92.86q0,7.08,3.18,11.4t9.45,4.31c1.37,0,2.64,0,3.8-.15s2.13-.22,2.88-.36V80.22a13.2,13.2,0,0,0-3.75-1.54,18.1,18.1,0,0,0-4.67-.62Q356.25,78.06,356.25,92.86Z"/><path class="cls-1" d="M402.68,93.68a33,33,0,0,1,2.21-12.59,26.83,26.83,0,0,1,5.8-9A24.07,24.07,0,0,1,419,66.66a25.93,25.93,0,0,1,9.6-1.85q11.51,0,18.19,7t6.67,20.7c0,.89,0,1.86-.1,2.93s-.14,2-.2,2.82H418.39a10.21,10.21,0,0,0,4.42,7.5q3.9,2.78,10.48,2.77a43.73,43.73,0,0,0,8.27-.77,30.89,30.89,0,0,0,6.63-1.9l2.05,12.43a21.13,21.13,0,0,1-3.29,1.23,41.17,41.17,0,0,1-4.57,1.08q-2.52.47-5.39.77a52.93,52.93,0,0,1-5.76.31,34,34,0,0,1-12.68-2.16,24.54,24.54,0,0,1-8.94-5.9,23.46,23.46,0,0,1-5.24-8.89A35.16,35.16,0,0,1,402.68,93.68Zm35.95-5.86A15.69,15.69,0,0,0,438,84a9.14,9.14,0,0,0-4.72-5.65,9.8,9.8,0,0,0-4.47-.92,10.34,10.34,0,0,0-4.42.87,9.08,9.08,0,0,0-3.08,2.31,10.27,10.27,0,0,0-1.9,3.34,22,22,0,0,0-1,3.85Z"/><path class="cls-1" d="M498.72,121.72q-17.36,0-26.45-9.65t-9.09-27.43A42.15,42.15,0,0,1,466,68.87a33.8,33.8,0,0,1,7.6-11.71,31.66,31.66,0,0,1,11.5-7.24,41.36,41.36,0,0,1,14.49-2.47,46.79,46.79,0,0,1,8.21.67,54.63,54.63,0,0,1,6.48,1.54,31.06,31.06,0,0,1,4.62,1.8q1.85.91,2.67,1.44l-4.62,12.94a39.23,39.23,0,0,0-7.66-3,36.56,36.56,0,0,0-9.91-1.23,21.94,21.94,0,0,0-7.24,1.23,16.38,16.38,0,0,0-6.27,4,19.66,19.66,0,0,0-4.36,7,29.44,29.44,0,0,0-1.65,10.48,37.29,37.29,0,0,0,1.08,9.19,19.66,19.66,0,0,0,3.49,7.35,16.86,16.86,0,0,0,6.32,4.88,22.44,22.44,0,0,0,9.45,1.8,42.19,42.19,0,0,0,6.27-.42,44.87,44.87,0,0,0,4.93-1,25.12,25.12,0,0,0,3.8-1.29c1.09-.47,2.09-.92,3-1.33l4.42,12.84a37.73,37.73,0,0,1-9.56,3.7A56,56,0,0,1,498.72,121.72Z"/><path class="cls-1" d="M531.8,120.28V43l15.31-2.46V66.46a30.23,30.23,0,0,1,3.95-1,24.72,24.72,0,0,1,4.68-.46,28.86,28.86,0,0,1,10.94,1.8,16.86,16.86,0,0,1,7,5.08,19.58,19.58,0,0,1,3.7,7.81,43.34,43.34,0,0,1,1.08,10.06v30.51H563.13V91.62q0-7.4-1.9-10.47t-7-3.09a19.7,19.7,0,0,0-3.86.36c-1.2.24-2.27.5-3.23.77v41.09Z"/><path class="cls-1" d="M638.43,118.43a83.68,83.68,0,0,1-10.07,2.11,82.75,82.75,0,0,1-12.94,1A30.82,30.82,0,0,1,604,119.67a17.46,17.46,0,0,1-7.24-5.19,20.18,20.18,0,0,1-3.8-8,43,43,0,0,1-1.13-10.17V66.25H607.1V94.5q0,7.4,1.95,10.68c1.3,2.2,3.73,3.29,7.29,3.29,1.1,0,2.26,0,3.5-.15s2.32-.23,3.28-.36V66.25h15.31Z"/><path class="cls-1" d="M682.5,91.62q0-7.4-1.9-10.47t-6.53-3.09c-1,0-2,.06-3,.16s-2,.22-3,.36v41.7H652.81V68.1c1.3-.34,2.82-.7,4.57-1.08s3.6-.72,5.55-1,4-.54,6-.72S673,65,675,65a25.53,25.53,0,0,1,9.5,1.49,21.44,21.44,0,0,1,6,3.54,28.53,28.53,0,0,1,15.41-5,27,27,0,0,1,10.63,1.8,15.94,15.94,0,0,1,6.62,5.08,19.18,19.18,0,0,1,3.4,7.81,50.83,50.83,0,0,1,.92,10.06v30.51H712.18V91.62q0-7.4-1.9-10.47c-1.26-2.06-3.44-3.09-6.52-3.09a13.86,13.86,0,0,0-3.44.62,13.36,13.36,0,0,0-3.65,1.54,23.59,23.59,0,0,1,.93,5c.13,1.75.2,3.62.2,5.6v29.48H682.5Z"/><path class="cls-1" d="M756.87,109.29a15.27,15.27,0,0,0,6-.82,3.18,3.18,0,0,0,1.74-3.18c0-1.24-.75-2.32-2.26-3.24a42.76,42.76,0,0,0-6.88-3.13,69.45,69.45,0,0,1-6.52-2.78,18.71,18.71,0,0,1-5-3.44,13.75,13.75,0,0,1-3.19-4.77,17.78,17.78,0,0,1-1.13-6.68,14.42,14.42,0,0,1,5.65-12q5.65-4.41,15.51-4.42a49,49,0,0,1,9.45.88,43,43,0,0,1,7.19,1.9L774.74,79.5a57.8,57.8,0,0,0-5.8-1.64,31.56,31.56,0,0,0-7-.72c-4.79,0-7.19,1.33-7.19,4a4.07,4.07,0,0,0,.31,1.64,3.62,3.62,0,0,0,1.23,1.39,18.67,18.67,0,0,0,2.52,1.44c1.06.52,2.41,1.09,4.06,1.71A62,62,0,0,1,771.15,91a19.77,19.77,0,0,1,5.19,3.91A12.3,12.3,0,0,1,779,99.58a20.85,20.85,0,0,1,.77,6q0,8-6,12.09t-17,4.1a48.93,48.93,0,0,1-12-1.23,48,48,0,0,1-6.63-2.06L740.74,106a49.61,49.61,0,0,0,8,2.42A39.15,39.15,0,0,0,756.87,109.29Z"/></svg>