<svg id="Layer_1" data-name="Layer 1" xmlns="http://www.w3.org/2000/svg" viewBox="0 0 799.99 176.31"><defs><style>.cls-1,.cls-3{fill:#f15a24;}.cls-2{fill:#fff;}.cls-3{font-size:105.94px;font-family:Ubuntu-Bold, Ubuntu;font-weight:700;}</style></defs><circle class="cls-1" cx="88.16" cy="88.16" r="88.16"/><path class="cls-2" d="M406.81,350.39a46,46,0,0,0,2.89-12.23l-.09,0c.23-.31.45-.61.67-.93a38.28,38.28,0,0,0,6.14-13.93,32.91,32.91,0,0,0-.07-13.94,34.62,34.62,0,0,0-6.07-13,48.09,48.09,0,0,0-11.73-11.11,45.4,45.4,0,0,0-14.61-6.78,35.81,35.81,0,0,0-14.3-.77,33.48,33.48,0,0,0-13,5,37.57,37.57,0,0,0-10.62,10.53c-.46.66-.88,1.33-1.29,2h0c-.72.32-1.83.88-3.3,1.7a38.72,38.72,0,0,0-5,3.43,66.78,66.78,0,0,0-6,5.48,57.15,57.15,0,0,0-6.38,7.85A51,51,0,0,0,316.47,330a38.89,38.89,0,0,0-.66,16.66,41.68,41.68,0,0,0,6.58,15.81,51.68,51.68,0,0,0,14,13.74q18,12.31,34.05,9.82T398.58,366A68.11,68.11,0,0,0,406.81,350.39Zm-35.1-53q6.77,0,14.76,5.43T397,314.72A12.56,12.56,0,0,1,395.44,327a12.71,12.71,0,0,1-11,5.94q-6.91,0-14.92-5.45t-10.35-11.87a12.8,12.8,0,0,1,1.7-12.3A12.62,12.62,0,0,1,371.71,297.4ZM376.86,363a20.49,20.49,0,0,1-9.31,3,23.74,23.74,0,0,1-9.86-1.56,45.59,45.59,0,0,1-10-5.28,36.06,36.06,0,0,1-9.46-8.93,24.06,24.06,0,0,1-4.1-9.29,20.15,20.15,0,0,1,.35-9.08,26.62,26.62,0,0,1,3.77-8.18c.65-.95,1.3-1.84,2-2.7a36.12,36.12,0,0,0,5.73,12.92,44,44,0,0,0,11.56,11.24A45.68,45.68,0,0,0,372.13,352a36.41,36.41,0,0,0,14.33.86c-.39.61-.79,1.23-1.23,1.86A27.62,27.62,0,0,1,376.86,363Z" transform="translate(-278.01 -243.71)"/><text class="cls-3" transform="translate(206.33 121.29)">CodeChums</text></svg>