<svg id="Layer_1" data-name="Layer 1" xmlns="http://www.w3.org/2000/svg" viewBox="0 0 783.99 176.31"><defs><style>.cls-1,.cls-3{fill:#f15a24;}.cls-2{fill:#fff;}.cls-3{font-size:102.72px;font-family:Ubuntu-Bold, Ubuntu;font-weight:700;}</style></defs><circle class="cls-1" cx="88.16" cy="88.16" r="88.16"/><path class="cls-2" d="M128.8,106.68a45.93,45.93,0,0,0,2.88-12.22l-.08,0,.67-.92a38.32,38.32,0,0,0,6.14-13.94,32.91,32.91,0,0,0-.07-13.94,34.65,34.65,0,0,0-6.08-13A48.05,48.05,0,0,0,120.54,41.5a45.54,45.54,0,0,0-14.62-6.78A35.79,35.79,0,0,0,91.62,34a33.34,33.34,0,0,0-13,5A37.43,37.43,0,0,0,68,49.48c-.45.66-.87,1.33-1.28,2h0c-.73.32-1.83.88-3.31,1.7a39.73,39.73,0,0,0-5,3.43,66.79,66.79,0,0,0-6.05,5.48A57.74,57.74,0,0,0,46,69.94,51.07,51.07,0,0,0,38.45,86.3,39,39,0,0,0,37.8,103a41.52,41.52,0,0,0,6.58,15.81,51.53,51.53,0,0,0,14,13.74q18,12.33,34.05,9.82t28.1-20.06A68.22,68.22,0,0,0,128.8,106.68Zm-35.11-53q6.77,0,14.77,5.44T119,71a12.52,12.52,0,0,1-1.55,12.31,12.71,12.71,0,0,1-11,6q-6.92,0-14.92-5.46T81.18,72a12.83,12.83,0,0,1,1.69-12.3A12.66,12.66,0,0,1,93.69,53.69Zm5.16,65.61a20.67,20.67,0,0,1-9.32,3,24,24,0,0,1-9.85-1.56,46.36,46.36,0,0,1-10.05-5.29,36.36,36.36,0,0,1-9.46-8.92,24.22,24.22,0,0,1-4.09-9.3,20.15,20.15,0,0,1,.34-9.08A26.88,26.88,0,0,1,60.2,80c.64-.94,1.3-1.84,2-2.7A36.07,36.07,0,0,0,67.9,90.2a44.1,44.1,0,0,0,11.55,11.24,45.73,45.73,0,0,0,14.67,6.82,36.21,36.21,0,0,0,14.33.86q-.58.91-1.23,1.86A27.73,27.73,0,0,1,98.85,119.3Z"/><text class="cls-3" transform="translate(208.32 120.28)">CodeChums</text></svg>